<svg width="25" height="25" viewBox="0 0 25 25" fill="none" xmlns="http://www.w3.org/2000/svg">
<path d="M8.16879 2.64499C6.86879 2.31499 5.50629 2.45499 4.43879 3.05249C3.35129 3.65999 2.58879 4.73749 2.55129 6.17874C2.49379 8.43124 3.01504 11.4537 5.08504 15.0012C7.12879 18.505 9.38504 20.605 11.2575 21.8525C12.44 22.6412 13.7463 22.6625 14.8625 22.1487C15.9625 21.6425 16.855 20.6312 17.3188 19.3775C17.4342 19.0657 17.4806 18.7325 17.4547 18.401C17.4288 18.0695 17.3312 17.7476 17.1688 17.4575L15.9763 15.33C15.6097 14.6752 15.0198 14.1742 14.3142 13.9185C13.6087 13.6628 12.8348 13.6696 12.1338 13.9375L11.3013 14.2562C10.8975 14.41 10.5263 14.3387 10.3163 14.1312C9.61004 13.4375 9.10504 12.4962 8.87629 11.4812C8.80379 11.1612 8.95129 10.7837 9.30379 10.5175L10.055 9.94999C10.6624 9.4917 11.0817 8.82757 11.2342 8.08217C11.3868 7.33677 11.2622 6.56132 10.8838 5.90124L9.66879 3.78249C9.50783 3.50199 9.29208 3.25673 9.03439 3.06131C8.77669 2.86589 8.48232 2.72431 8.16879 2.64499ZM3.80129 6.21249C3.82629 5.24499 4.31629 4.55374 5.04879 4.14374C5.80129 3.72249 6.82879 3.59374 7.86129 3.85624C8.01258 3.89445 8.15463 3.96273 8.27898 4.05701C8.40332 4.15129 8.50741 4.26963 8.58504 4.40499L9.79879 6.52374C10.0258 6.91962 10.1007 7.38471 10.0093 7.83183C9.91794 8.27894 9.66666 8.67739 9.30254 8.95249L8.55129 9.51999C7.90129 10.01 7.45129 10.85 7.65629 11.7562C7.93379 12.9837 8.54754 14.1475 9.44004 15.0237C10.0925 15.6637 11.0225 15.7012 11.7475 15.4237L12.58 15.105C13.0007 14.944 13.4652 14.9398 13.8886 15.0931C14.3121 15.2464 14.6662 15.547 14.8863 15.94L16.0775 18.0687C16.2275 18.3362 16.2525 18.6562 16.1463 18.9437C15.7838 19.925 15.1025 20.6612 14.34 21.0125C13.5938 21.3562 12.75 21.3462 11.9513 20.8125C10.2375 19.67 8.11379 17.7112 6.16379 14.3712C4.21254 11.0212 3.74879 8.22874 3.80129 6.21249ZM15.9288 2.57749C15.7839 2.49693 15.613 2.47723 15.4536 2.5227C15.2942 2.56818 15.1594 2.67512 15.0788 2.81999C14.9982 2.96487 14.9785 3.13581 15.024 3.29522C15.0695 3.45462 15.1764 3.58943 15.3213 3.66999L15.8013 3.93749C17.3008 4.7705 18.5763 5.95418 19.5189 7.38738C20.4614 8.82057 21.043 10.4607 21.2138 12.1675L21.2538 12.5612C21.2585 12.6455 21.2803 12.728 21.3177 12.8036C21.3552 12.8793 21.4075 12.9465 21.4717 13.0014C21.5359 13.0562 21.6105 13.0975 21.691 13.1227C21.7716 13.148 21.8564 13.1566 21.9404 13.1482C22.0244 13.1397 22.1058 13.1143 22.1797 13.0736C22.2536 13.0328 22.3185 12.9775 22.3704 12.911C22.4224 12.8444 22.4603 12.7681 22.4819 12.6865C22.5036 12.6049 22.5085 12.5198 22.4963 12.4362L22.4575 12.0437C22.2668 10.1357 21.6169 8.30228 20.5633 6.70014C19.5097 5.098 18.0838 3.77483 16.4075 2.84374L15.9288 2.57749ZM14.4638 5.92749C14.5492 5.78546 14.6875 5.68315 14.8483 5.64307C15.0091 5.60298 15.1792 5.6284 15.3213 5.71374L15.4763 5.80624C16.4853 6.41118 17.3509 7.22802 18.0132 8.2003C18.6756 9.17257 19.1189 10.2771 19.3125 11.4375L19.3675 11.7712C19.3833 11.8531 19.3825 11.9373 19.3652 12.0188C19.3479 12.1003 19.3145 12.1776 19.2669 12.246C19.2194 12.3144 19.1586 12.3726 19.0882 12.4172C19.0177 12.4618 18.9391 12.4919 18.8569 12.5056C18.7747 12.5194 18.6906 12.5166 18.6095 12.4973C18.5284 12.4781 18.452 12.4428 18.3847 12.3936C18.3175 12.3444 18.2607 12.2822 18.2179 12.2108C18.175 12.1393 18.1468 12.06 18.135 11.9775L18.0788 11.6437C17.9152 10.662 17.5405 9.72756 16.9804 8.90487C16.4204 8.08217 15.6884 7.39087 14.835 6.87874L14.68 6.78499C14.6096 6.74282 14.5482 6.68718 14.4993 6.62125C14.4503 6.55533 14.4149 6.48041 14.3949 6.40078C14.3749 6.32115 14.3709 6.23837 14.3829 6.15716C14.3949 6.07595 14.4216 5.99791 14.4638 5.92749Z" fill="#4AB281"/>
</svg>
