<svg width="67" height="69" viewBox="0 0 67 69" fill="none" xmlns="http://www.w3.org/2000/svg">
<g filter="url(#filter0_d_264_10)">
<rect x="22" y="18" width="25" height="25" rx="3" fill="white"/>
</g>
<path d="M28.125 25H26.875C26.7092 25 26.5503 24.9342 26.4331 24.817C26.3158 24.6998 26.25 24.5408 26.25 24.375C26.25 24.2093 26.3158 24.0503 26.4331 23.9331C26.5503 23.8159 26.7092 23.75 26.875 23.75H31.875V21.8738C31.875 21.708 31.9408 21.549 32.0581 21.4318C32.1753 21.3146 32.3342 21.2488 32.5 21.2488H37.5C37.6658 21.2488 37.8247 21.3146 37.9419 21.4318C38.0592 21.549 38.125 21.708 38.125 21.8738V23.75H43.125C43.2908 23.75 43.4497 23.8159 43.5669 23.9331C43.6842 24.0503 43.75 24.2093 43.75 24.375C43.75 24.5408 43.6842 24.6998 43.5669 24.817C43.4497 24.9342 43.2908 25 43.125 25H41.875V38.125C41.875 38.2908 41.8092 38.4498 41.6919 38.567C41.5747 38.6842 41.4158 38.75 41.25 38.75H28.75C28.5842 38.75 28.4253 38.6842 28.3081 38.567C28.1908 38.4498 28.125 38.2908 28.125 38.125V25ZM36.875 23.75V22.5H33.125V23.75H36.875ZM29.375 37.5H40.625V25H29.375V37.5ZM33.125 35C32.9592 35 32.8003 34.9342 32.6831 34.817C32.5658 34.6998 32.5 34.5408 32.5 34.375V28.125C32.5 27.9593 32.5658 27.8003 32.6831 27.6831C32.8003 27.5659 32.9592 27.5 33.125 27.5C33.2908 27.5 33.4497 27.5659 33.5669 27.6831C33.6842 27.8003 33.75 27.9593 33.75 28.125V34.375C33.75 34.5408 33.6842 34.6998 33.5669 34.817C33.4497 34.9342 33.2908 35 33.125 35ZM36.875 35C36.7092 35 36.5503 34.9342 36.4331 34.817C36.3158 34.6998 36.25 34.5408 36.25 34.375V28.125C36.25 27.9593 36.3158 27.8003 36.4331 27.6831C36.5503 27.5659 36.7092 27.5 36.875 27.5C37.0408 27.5 37.1997 27.5659 37.3169 27.6831C37.4342 27.8003 37.5 27.9593 37.5 28.125V34.375C37.5 34.5408 37.4342 34.6998 37.3169 34.817C37.1997 34.9342 37.0408 35 36.875 35Z" fill="#4AB382"/>
<defs>
<filter id="filter0_d_264_10" x="0" y="0" width="69" height="69" filterUnits="userSpaceOnUse" color-interpolation-filters="sRGB">
<feFlood flood-opacity="0" result="BackgroundImageFix"/>
<feColorMatrix in="SourceAlpha" type="matrix" values="0 0 0 0 0 0 0 0 0 0 0 0 0 0 0 0 0 0 127 0" result="hardAlpha"/>
<feMorphology radius="2" operator="dilate" in="SourceAlpha" result="effect1_dropShadow_264_10"/>
<feOffset dy="4"/>
<feGaussianBlur stdDeviation="10"/>
<feComposite in2="hardAlpha" operator="out"/>
<feColorMatrix type="matrix" values="0 0 0 0 0 0 0 0 0 0 0 0 0 0 0 0 0 0 0.06 0"/>
<feBlend mode="normal" in2="BackgroundImageFix" result="effect1_dropShadow_264_10"/>
<feBlend mode="normal" in="SourceGraphic" in2="effect1_dropShadow_264_10" result="shape"/>
</filter>
</defs>
</svg>
