<svg width="16" height="16" viewBox="0 0 16 16" fill="none" xmlns="http://www.w3.org/2000/svg">
<path d="M1.8125 3.50003H0.6875C0.538316 3.50003 0.395242 3.44076 0.289752 3.33527C0.184263 3.22978 0.125 3.08671 0.125 2.93753C0.125 2.78834 0.184263 2.64527 0.289752 2.53978C0.395242 2.43429 0.538316 2.37503 0.6875 2.37503H5.1875V0.686401C5.1875 0.537217 5.24676 0.394143 5.35225 0.288654C5.45774 0.183165 5.60082 0.123901 5.75 0.123901H10.25C10.3992 0.123901 10.5423 0.183165 10.6477 0.288654C10.7532 0.394143 10.8125 0.537217 10.8125 0.686401V2.37503H15.3125C15.4617 2.37503 15.6048 2.43429 15.7102 2.53978C15.8157 2.64527 15.875 2.78834 15.875 2.93753C15.875 3.08671 15.8157 3.22978 15.7102 3.33527C15.6048 3.44076 15.4617 3.50003 15.3125 3.50003H14.1875V15.3125C14.1875 15.4617 14.1282 15.6048 14.0227 15.7103C13.9173 15.8158 13.7742 15.875 13.625 15.875H2.375C2.22582 15.875 2.08274 15.8158 1.97725 15.7103C1.87176 15.6048 1.8125 15.4617 1.8125 15.3125V3.50003ZM9.6875 2.37503V1.25003H6.3125V2.37503H9.6875ZM2.9375 14.75H13.0625V3.50003H2.9375V14.75ZM6.3125 12.5C6.16332 12.5 6.02024 12.4408 5.91475 12.3353C5.80926 12.2298 5.75 12.0867 5.75 11.9375V6.31253C5.75 6.16334 5.80926 6.02027 5.91475 5.91478C6.02024 5.80929 6.16332 5.75003 6.3125 5.75003C6.46168 5.75003 6.60476 5.80929 6.71025 5.91478C6.81574 6.02027 6.875 6.16334 6.875 6.31253V11.9375C6.875 12.0867 6.81574 12.2298 6.71025 12.3353C6.60476 12.4408 6.46168 12.5 6.3125 12.5ZM9.6875 12.5C9.53832 12.5 9.39524 12.4408 9.28975 12.3353C9.18426 12.2298 9.125 12.0867 9.125 11.9375V6.31253C9.125 6.16334 9.18426 6.02027 9.28975 5.91478C9.39524 5.80929 9.53832 5.75003 9.6875 5.75003C9.83668 5.75003 9.97976 5.80929 10.0852 5.91478C10.1907 6.02027 10.25 6.16334 10.25 6.31253V11.9375C10.25 12.0867 10.1907 12.2298 10.0852 12.3353C9.97976 12.4408 9.83668 12.5 9.6875 12.5Z" fill="#4AB382"/>
</svg>
