<svg width="20" height="20" viewBox="0 0 20 20" fill="none" xmlns="http://www.w3.org/2000/svg">
<g clip-path="url(#clip0_179_8)">
<path d="M19.8175 0.183114C19.904 0.26978 19.9632 0.379957 19.9876 0.499961C20.0121 0.619965 20.0007 0.744506 19.955 0.858114L12.6812 19.0419C12.6171 19.202 12.5101 19.3414 12.3719 19.4446C12.2337 19.5478 12.0697 19.6109 11.898 19.6269C11.7262 19.6429 11.5534 19.6113 11.3985 19.5354C11.2436 19.4595 11.1126 19.3424 11.02 19.1969L7.04748 12.9531L0.803726 8.98061C0.657873 8.88809 0.540415 8.75708 0.464313 8.60202C0.388211 8.44697 0.356423 8.27391 0.372457 8.10193C0.388491 7.92995 0.451723 7.76575 0.555177 7.62744C0.65863 7.48912 0.798283 7.38208 0.958726 7.31811L19.1425 0.0468644C19.2561 0.00112978 19.3806 -0.0102199 19.5006 0.0142253C19.6206 0.0386706 19.7308 0.0978334 19.8175 0.184364V0.183114ZM8.29498 12.5881L11.7462 18.0106L17.6625 3.22061L8.29498 12.5881ZM16.7787 2.33686L1.98873 8.25311L7.41248 11.7031L16.78 2.33686H16.7787Z" fill="white"/>
</g>
<defs>
<clipPath id="clip0_179_8">
<rect width="20" height="20" fill="white"/>
</clipPath>
</defs>
</svg>
