<svg width="21" height="21" viewBox="0 0 21 21" fill="none" xmlns="http://www.w3.org/2000/svg">
<g clip-path="url(#clip0_195_99)">
<path d="M17.8513 3.05288C16.8886 2.0812 15.742 1.31086 14.4786 0.786723C13.2151 0.26259 11.86 -0.00484414 10.4921 3.71116e-06C4.76044 3.71116e-06 0.08925 4.66988 0.084 10.4029C0.084 12.2391 0.564375 14.0254 1.47131 15.6069L0 21L5.51775 19.5536C7.04419 20.3843 8.75428 20.8197 10.4921 20.8202H10.4974C16.2304 20.8202 20.9002 16.1503 20.9055 10.4121C20.9068 9.0445 20.6375 7.69019 20.1131 6.42716C19.5887 5.16413 18.8196 4.01734 17.85 3.05288H17.8513ZM10.4921 19.0588C8.94206 19.0593 7.42048 18.6422 6.08737 17.8513L5.77237 17.6623L2.499 18.5207L3.37312 15.3274L3.16837 14.9979C2.30187 13.6202 1.8436 12.0252 1.84669 10.3976C1.84669 5.6385 5.72775 1.75613 10.4974 1.75613C11.6337 1.75409 12.7591 1.97699 13.8088 2.41197C14.8586 2.84696 15.8118 3.48543 16.6136 4.29057C17.4182 5.09257 18.0561 6.04594 18.4904 7.09568C18.9247 8.14543 19.1469 9.27077 19.1441 10.4068C19.1389 15.183 15.2578 19.0588 10.4921 19.0588V19.0588ZM15.2368 12.5829C14.9782 12.453 13.7012 11.8243 13.461 11.7351C13.2221 11.6498 13.0476 11.6051 12.8769 11.865C12.7024 12.1236 12.2036 12.7129 12.054 12.8822C11.9044 13.0568 11.7495 13.0764 11.4896 12.9478C11.2311 12.8166 10.3924 12.5436 9.40012 11.655C8.62575 10.9659 8.10731 10.1128 7.95244 9.85425C7.80281 9.59438 7.938 9.45525 8.06794 9.32532C8.18212 9.20982 8.3265 9.02081 8.45644 8.87119C8.58769 8.72156 8.631 8.61132 8.71631 8.43807C8.80162 8.26219 8.76094 8.11256 8.69662 7.98263C8.631 7.85269 8.11256 6.57038 7.89337 6.05325C7.68337 5.54269 7.46944 5.61357 7.30931 5.607C7.15969 5.59782 6.98512 5.59782 6.81056 5.59782C6.67874 5.60109 6.54902 5.63158 6.42954 5.68737C6.31005 5.74316 6.20339 5.82304 6.11625 5.922C5.87737 6.18188 5.20931 6.81057 5.20931 8.09288C5.20931 9.37519 6.14119 10.6076 6.27244 10.7822C6.40106 10.9568 8.10206 13.5804 10.7126 14.7092C11.3295 14.9783 11.8151 15.1371 12.1944 15.2578C12.8179 15.4573 13.3809 15.4271 13.8298 15.3628C14.3286 15.2867 15.3667 14.7328 15.5859 14.1251C15.8012 13.5161 15.8012 12.9964 15.7356 12.8874C15.6712 12.7772 15.4967 12.7129 15.2368 12.5829V12.5829Z" fill="#4AB382"/>
</g>
<defs>
<clipPath id="clip0_195_99">
<rect width="21" height="21" fill="white"/>
</clipPath>
</defs>
</svg>
